# xmcd
#
# Track frame offsets:
#	150
#	19462
#	34802
#	47542
#	62168
#	83701
#	98403
#	124869
#	135807
#	148716
#	173092
#	185806
#	199847
#	218532
#	232010
#
# Disc length: 3608
#
# Revision: 1
# Processed by: cddbd v1.5.1PL0 Copyright (c) Steve Scherf et al.
# Submitted via: CDex 1.50
# Normalized: r0:TDELIM( - )
#
DISCID=cd0e160f
DTITLE=Various Artist - Jazz Moods
DYEAR=1900
DGENRE=Jazz
TTITLE0=Coleman Hawkins' Swing Four - Sweet Lorraine
TTITLE1=Louis Armstrong and The Sy Oliver Ochestra - La Vie En Rose
TTITLE2=Art Tatum - Tea For Two
TTITLE3=Stan Getz - I've Got You Under My Skin
TTITLE4=Joe Williams With Count Basie and The Kansas City Seven - Everyday(I Have the Blues)
TTITLE5=The Modern Jazz Quartet - All The Things You Are
TTITLE6=Clark Terry - Misty
TTITLE7=Ray Charles - I Wonder Who's Kissin' Her Now
TTITLE8=Charlie Parker With Strings - I'm in The Mood For Love
TTITLE9=Miles Davis - It's only A Paper Moon
TTITLE10=Earl Hines and His Orchestra - Honeysuckle Rose
TTITLE11=Johny Hodges - Perdido
TTITLE12=Stephane Grappelli - It Don't Mean A Thing
TTITLE13=Nat King Cole - On the Sunny Side Of The Street
TTITLE14=Dizzy Gillespie - One Note Samba
EXTD=
EXTT0=
EXTT1=
EXTT2=
EXTT3=
EXTT4=
EXTT5=
EXTT6=
EXTT7=
EXTT8=
EXTT9=
EXTT10=
EXTT11=
EXTT12=
EXTT13=
EXTT14=
PLAYORDER=
